M48
; DRILL file {KiCad 7.0.8} date Tue Dec  5 21:31:32 2023
; FORMAT={-:-/ absolute / inch / decimal}
; #@! TF.CreationDate,2023-12-05T21:31:32-08:00
; #@! TF.GenerationSoftware,Kicad,Pcbnew,7.0.8
; #@! TF.FileFunction,Plated,1,2,PTH
FMAT,2
INCH
; #@! TA.AperFunction,Plated,PTH,ViaDrill
T1C0.0157
; #@! TA.AperFunction,Plated,PTH,ComponentDrill
T2C0.0315
; #@! TA.AperFunction,Plated,PTH,ComponentDrill
T3C0.0354
; #@! TA.AperFunction,Plated,PTH,ComponentDrill
T4C0.0394
; #@! TA.AperFunction,Plated,PTH,ComponentDrill
T5C0.0402
%
G90
G05
T1
X2.7739Y-2.7047
X2.925Y-2.615
X2.93Y-2.86
X2.93Y-4.06
X2.93Y-5.565
X3.1Y-5.57
X3.14Y-5.57
X3.17Y-4.21
X3.33Y-3.25
X3.33Y-3.41
X3.33Y-3.52
X3.33Y-3.7
X3.33Y-3.92
X3.33Y-4.19
X3.33Y-4.31
X3.33Y-4.41
X3.33Y-4.51
X3.33Y-5.31
X3.34Y-2.81
X3.34Y-2.87
X3.34Y-2.93
X3.34Y-2.99
X3.35Y-5.78
X3.36Y-4.0
X3.36Y-5.51
X3.37Y-5.19
X3.3765Y-2.7735
X3.38Y-2.84
X3.38Y-2.9
X3.38Y-2.96
X3.405Y-3.065
X3.41Y-3.145
X3.41Y-5.22
X3.43Y-5.57
X3.44Y-3.865
X3.44Y-4.555
X3.45Y-4.77
X3.45Y-5.13
X3.4538Y-3.2621
X3.455Y-3.415
X3.455Y-3.515
X3.46Y-5.32
X3.4623Y-5.4183
X3.465Y-2.54
X3.48Y-2.81
X3.48Y-2.87
X3.48Y-2.93
X3.48Y-2.99
X3.48Y-3.11
X3.49Y-4.22
X3.49Y-5.6
X3.53Y-5.51
X3.54Y-2.75
X3.55Y-3.78
X3.56Y-5.69
X3.57Y-5.32
X3.5834Y-3.2627
X3.63Y-3.11
X3.63Y-4.92
X3.6304Y-4.7957
X3.65Y-5.32
X3.655Y-3.4
X3.69Y-5.02
X3.695Y-4.22
X3.71Y-5.09
X3.7114Y-3.2814
X3.715Y-3.365
X3.72Y-4.83
X3.74Y-3.84
X3.74Y-4.37
X3.74Y-4.52
X3.7609Y-4.8019
X3.77Y-5.22
X3.78Y-4.62
X3.81Y-5.19
X3.82Y-3.75
X3.82Y-4.56
X3.825Y-4.22
X3.83Y-4.05
X3.83Y-4.7
X3.83Y-4.83
X3.83Y-4.91
X3.83Y-5.01
X3.83Y-5.31
X3.8329Y-5.0965
X3.84Y-3.39
X3.84Y-3.53
X3.85Y-3.62
X3.98Y-4.86
X3.99Y-4.76
X3.995Y-3.11
X3.995Y-3.16
X3.995Y-3.21
X3.995Y-3.31
X4.0Y-3.41
X4.0Y-3.61
X4.0Y-3.7
X4.0Y-3.75
X4.0Y-3.8
X4.0Y-3.85
X4.0Y-3.97
X4.0Y-4.06
X4.0Y-4.11
X4.0Y-4.31
X4.0Y-4.41
X4.0Y-5.09
X4.005Y-2.945
X4.01Y-4.61
X4.01Y-4.66
X4.01Y-4.71
X4.01Y-5.21
X4.02Y-5.16
X4.03Y-5.66
X4.035Y-3.64
X4.04Y-2.86
X4.05Y-3.37
X4.06Y-4.46
X4.06Y-5.32
X4.07Y-3.56
X4.0783Y-3.9577
X4.08Y-2.66
X4.08Y-2.75
X4.09Y-4.9
X4.1Y-5.43
X4.1162Y-3.7341
X4.1162Y-3.8344
X4.12Y-4.16
X4.14Y-2.75
X4.15Y-5.525
X4.16Y-4.5
X4.16Y-5.19
X4.16Y-5.23
X4.17Y-3.05
X4.18Y-4.63
X4.18Y-5.555
X4.1821Y-3.957
X4.19Y-3.45
X4.1911Y-3.5577
X4.22Y-4.86
X4.22Y-4.91
X4.22Y-5.09
X4.22Y-5.59
X4.23Y-2.955
X4.23Y-3.05
X4.245Y-5.52
X4.26Y-4.435
X4.2641Y-4.2531
X4.27Y-3.17
X4.27Y-3.26
X4.27Y-4.78
X4.27Y-5.3
X4.275Y-5.085
X4.275Y-5.195
X4.275Y-5.625
X4.31Y-3.9
X4.55Y-3.93
X4.55Y-5.07
X4.55Y-5.18
X4.555Y-5.53
X4.57Y-3.51
X4.5741Y-4.4409
X4.58Y-4.725
X4.58Y-4.96
X4.585Y-4.825
X4.585Y-4.905
X4.59Y-2.945
X4.65Y-3.97
X4.65Y-4.36
X4.655Y-4.97
X4.665Y-4.775
X4.67Y-4.66
X4.68Y-4.41
X4.69Y-3.82
X4.71Y-3.73
X4.73Y-3.6
X5.335Y-5.315
X5.34Y-5.4241
X5.34Y-5.525
X5.34Y-5.6262
X5.34Y-5.73
X5.35Y-3.4
X5.3561Y-4.0722
X5.36Y-3.06
X5.37Y-5.09
X5.37Y-5.16
X5.47Y-3.88
X5.47Y-4.23
X5.47Y-4.52
X5.5Y-3.44
X5.5Y-3.54
X5.5Y-3.64
X5.5Y-3.74
X5.5Y-3.82
X5.55Y-3.29
X5.58Y-3.44
X5.58Y-3.54
X5.58Y-3.65
X5.58Y-3.74
X5.59Y-5.2
X5.61Y-4.2
X5.62Y-3.29
X5.635Y-3.96
X5.65Y-4.75
X5.65Y-4.83
X5.67Y-4.26
X5.68Y-3.15
X5.71Y-3.11
X5.72Y-4.34
X5.735Y-2.895
X5.74Y-5.24
X5.74Y-5.34
X5.74Y-5.45
X5.74Y-5.54
X5.74Y-5.64
X5.75Y-4.85
X5.76Y-3.29
X5.76Y-3.37
X5.77Y-3.74
X5.77Y-3.84
X5.77Y-3.94
X5.77Y-4.04
X5.77Y-4.14
X5.78Y-3.06
X5.8Y-4.94
X5.8Y-5.01
X5.81Y-4.42
X5.81Y-4.49
X5.81Y-4.57
X5.81Y-4.65
X5.82Y-4.25
X5.835Y-4.835
X5.86Y-5.055
X5.865Y-3.94
X5.87Y-4.04
X5.87Y-4.14
X5.875Y-3.845
X5.875Y-4.33
X5.88Y-4.435
T2
X3.44Y-3.77
X3.44Y-4.17
X3.44Y-4.26
X3.44Y-4.66
X4.6216Y-2.78
X4.6226Y-3.12
X4.72Y-2.78
X4.721Y-3.12
X5.37Y-4.52
X5.37Y-4.92
X5.46Y-2.899
X5.46Y-2.9974
X5.46Y-3.149
X5.46Y-3.2474
X5.56Y-4.52
X5.56Y-4.92
T3
X3.66Y-3.9198
X3.66Y-4.0198
X3.66Y-4.4098
X3.66Y-4.5098
X5.45Y-4.06
X5.45Y-4.16
X5.45Y-4.2904
X5.45Y-4.3904
T4
X3.77Y-5.49
X3.77Y-5.59
X3.77Y-5.69
X3.78Y-2.62
X3.78Y-2.72
X3.78Y-2.82
X3.78Y-3.079
X3.78Y-3.179
X3.78Y-3.279
X4.38Y-2.7198
X4.38Y-2.8198
X4.38Y-2.9198
X4.38Y-3.0198
X4.38Y-3.1198
X4.38Y-3.2198
X4.38Y-3.3198
X4.38Y-3.4198
X4.38Y-3.5198
X4.38Y-3.6198
X4.38Y-3.7198
X4.38Y-3.8198
X4.38Y-3.9198
X4.38Y-4.0198
X4.38Y-4.1198
X4.38Y-4.2198
X4.38Y-4.3198
X4.38Y-4.4198
X4.38Y-4.5198
X4.38Y-4.6198
X4.38Y-4.7198
X4.38Y-4.8198
X4.38Y-4.9198
X4.38Y-5.0198
X4.38Y-5.1198
X4.38Y-5.2198
X4.38Y-5.3198
X4.38Y-5.4198
X4.38Y-5.5198
X4.38Y-5.6198
X4.48Y-2.7198
X4.48Y-2.8198
X4.48Y-2.9198
X4.48Y-3.0198
X4.48Y-3.1198
X4.48Y-3.2198
X4.48Y-3.3198
X4.48Y-3.4198
X4.48Y-3.5198
X4.48Y-3.6198
X4.48Y-3.7198
X4.48Y-3.8198
X4.48Y-3.9198
X4.48Y-4.0198
X4.48Y-4.1198
X4.48Y-4.2198
X4.48Y-4.3198
X4.48Y-4.4198
X4.48Y-4.5198
X4.48Y-4.6198
X4.48Y-4.7198
X4.48Y-4.8198
X4.48Y-4.9198
X4.48Y-5.0198
X4.48Y-5.1198
X4.48Y-5.2198
X4.48Y-5.3198
X4.48Y-5.4198
X4.48Y-5.5198
X4.48Y-5.6198
X5.11Y-2.8898
X5.11Y-2.9898
X5.11Y-3.0898
X5.11Y-3.1898
X5.11Y-3.2898
X5.11Y-3.3898
X5.11Y-3.4898
X5.11Y-3.5898
X5.11Y-3.6898
X5.11Y-3.7898
X5.11Y-3.8898
X5.11Y-3.9898
X5.11Y-4.0898
X5.11Y-4.1898
X5.11Y-4.2898
X5.11Y-4.3898
X5.11Y-4.4898
X5.11Y-4.5898
X5.11Y-4.6898
X5.11Y-4.7898
X5.11Y-4.8898
X5.11Y-4.9898
X5.11Y-5.0898
X5.11Y-5.1898
X5.11Y-5.2898
X5.11Y-5.3898
X5.11Y-5.4898
X5.11Y-5.5898
X5.11Y-5.6898
X5.11Y-5.7898
X5.21Y-2.8898
X5.21Y-2.9898
X5.21Y-3.0898
X5.21Y-3.1898
X5.21Y-3.2898
X5.21Y-3.3898
X5.21Y-3.4898
X5.21Y-3.5898
X5.21Y-3.6898
X5.21Y-3.7898
X5.21Y-3.8898
X5.21Y-3.9898
X5.21Y-4.0898
X5.21Y-4.1898
X5.21Y-4.2898
X5.21Y-4.3898
X5.21Y-4.4898
X5.21Y-4.5898
X5.21Y-4.6898
X5.21Y-4.7898
X5.21Y-4.8898
X5.21Y-4.9898
X5.21Y-5.0898
X5.21Y-5.1898
X5.21Y-5.2898
X5.21Y-5.3898
X5.21Y-5.4898
X5.21Y-5.5898
X5.21Y-5.6898
X5.21Y-5.7898
T5
X2.5194Y-2.6102
X2.5194Y-2.7102
X2.5194Y-2.8102
X2.5194Y-2.9102
X2.5194Y-3.0102
X2.5194Y-3.1102
X2.5194Y-3.2102
X2.5194Y-3.3102
X2.5194Y-3.4102
X2.5194Y-3.5102
X2.5194Y-3.6102
X2.5194Y-3.7102
X2.5194Y-3.8102
X2.5194Y-3.9102
X2.5194Y-4.0102
X2.5194Y-4.1102
X2.5194Y-4.2102
X2.5194Y-4.3102
X2.5194Y-4.4102
X2.5194Y-4.5102
X2.5194Y-4.6102
X2.5194Y-4.7102
X2.5194Y-4.8102
X2.5194Y-4.9102
X2.5194Y-5.0102
X2.5194Y-5.1102
X2.5194Y-5.2102
X2.5194Y-5.3102
X2.5194Y-5.4102
X2.5194Y-5.5102
X2.5194Y-5.6102
X2.5194Y-5.7102
X2.71Y-2.6102
X2.71Y-2.7102
X2.71Y-2.8102
X2.71Y-2.9102
X2.71Y-3.0102
X2.71Y-3.1102
X2.71Y-3.2102
X2.71Y-3.3102
X2.71Y-3.4102
X2.71Y-3.5102
X2.71Y-3.6102
X2.71Y-3.7102
X2.71Y-3.8102
X2.71Y-3.9102
X2.71Y-4.0102
X2.71Y-4.1102
X2.71Y-4.2102
X2.71Y-4.3102
X2.71Y-4.4102
X2.71Y-4.5102
X2.71Y-4.6102
X2.71Y-4.7102
X2.71Y-4.8102
X2.71Y-4.9102
X2.71Y-5.0102
X2.71Y-5.1102
X2.71Y-5.2102
X2.71Y-5.3102
X2.71Y-5.4102
X2.71Y-5.5102
X2.71Y-5.6102
X2.71Y-5.7102
T0
M30
