%TF.GenerationSoftware,KiCad,Pcbnew,7.0.8*%
%TF.CreationDate,2023-12-05T21:31:03-08:00*%
%TF.ProjectId,Teradrive Mega CD Adapter,54657261-6472-4697-9665-204d65676120,1*%
%TF.SameCoordinates,Original*%
%TF.FileFunction,Legend,Bot*%
%TF.FilePolarity,Positive*%
%FSLAX46Y46*%
G04 Gerber Fmt 4.6, Leading zero omitted, Abs format (unit mm)*
G04 Created by KiCad (PCBNEW 7.0.8) date 2023-12-05 21:31:03*
%MOMM*%
%LPD*%
G01*
G04 APERTURE LIST*
%ADD10C,0.100000*%
%ADD11C,0.150000*%
%ADD12C,0.127000*%
%ADD13C,0.200000*%
%ADD14C,0.120000*%
G04 APERTURE END LIST*
D10*
X148875204Y-111127265D02*
X148875204Y-111603455D01*
X149160919Y-111032027D02*
X148160919Y-111365360D01*
X148160919Y-111365360D02*
X149160919Y-111698693D01*
X149160919Y-112555836D02*
X149160919Y-111984408D01*
X149160919Y-112270122D02*
X148160919Y-112270122D01*
X148160919Y-112270122D02*
X148303776Y-112174884D01*
X148303776Y-112174884D02*
X148399014Y-112079646D01*
X148399014Y-112079646D02*
X148446633Y-111984408D01*
X148160919Y-113460598D02*
X148160919Y-112984408D01*
X148160919Y-112984408D02*
X148637109Y-112936789D01*
X148637109Y-112936789D02*
X148589490Y-112984408D01*
X148589490Y-112984408D02*
X148541871Y-113079646D01*
X148541871Y-113079646D02*
X148541871Y-113317741D01*
X148541871Y-113317741D02*
X148589490Y-113412979D01*
X148589490Y-113412979D02*
X148637109Y-113460598D01*
X148637109Y-113460598D02*
X148732347Y-113508217D01*
X148732347Y-113508217D02*
X148970442Y-113508217D01*
X148970442Y-113508217D02*
X149065680Y-113460598D01*
X149065680Y-113460598D02*
X149113300Y-113412979D01*
X149113300Y-113412979D02*
X149160919Y-113317741D01*
X149160919Y-113317741D02*
X149160919Y-113079646D01*
X149160919Y-113079646D02*
X149113300Y-112984408D01*
X149113300Y-112984408D02*
X149065680Y-112936789D01*
X148875204Y-72392265D02*
X148875204Y-72868455D01*
X149160919Y-72297027D02*
X148160919Y-72630360D01*
X148160919Y-72630360D02*
X149160919Y-72963693D01*
X148160919Y-73201789D02*
X148160919Y-73820836D01*
X148160919Y-73820836D02*
X148541871Y-73487503D01*
X148541871Y-73487503D02*
X148541871Y-73630360D01*
X148541871Y-73630360D02*
X148589490Y-73725598D01*
X148589490Y-73725598D02*
X148637109Y-73773217D01*
X148637109Y-73773217D02*
X148732347Y-73820836D01*
X148732347Y-73820836D02*
X148970442Y-73820836D01*
X148970442Y-73820836D02*
X149065680Y-73773217D01*
X149065680Y-73773217D02*
X149113300Y-73725598D01*
X149113300Y-73725598D02*
X149160919Y-73630360D01*
X149160919Y-73630360D02*
X149160919Y-73344646D01*
X149160919Y-73344646D02*
X149113300Y-73249408D01*
X149113300Y-73249408D02*
X149065680Y-73201789D01*
X148160919Y-74439884D02*
X148160919Y-74535122D01*
X148160919Y-74535122D02*
X148208538Y-74630360D01*
X148208538Y-74630360D02*
X148256157Y-74677979D01*
X148256157Y-74677979D02*
X148351395Y-74725598D01*
X148351395Y-74725598D02*
X148541871Y-74773217D01*
X148541871Y-74773217D02*
X148779966Y-74773217D01*
X148779966Y-74773217D02*
X148970442Y-74725598D01*
X148970442Y-74725598D02*
X149065680Y-74677979D01*
X149065680Y-74677979D02*
X149113300Y-74630360D01*
X149113300Y-74630360D02*
X149160919Y-74535122D01*
X149160919Y-74535122D02*
X149160919Y-74439884D01*
X149160919Y-74439884D02*
X149113300Y-74344646D01*
X149113300Y-74344646D02*
X149065680Y-74297027D01*
X149065680Y-74297027D02*
X148970442Y-74249408D01*
X148970442Y-74249408D02*
X148779966Y-74201789D01*
X148779966Y-74201789D02*
X148541871Y-74201789D01*
X148541871Y-74201789D02*
X148351395Y-74249408D01*
X148351395Y-74249408D02*
X148256157Y-74297027D01*
X148256157Y-74297027D02*
X148208538Y-74344646D01*
X148208538Y-74344646D02*
X148160919Y-74439884D01*
X148875204Y-147322265D02*
X148875204Y-147798455D01*
X149160919Y-147227027D02*
X148160919Y-147560360D01*
X148160919Y-147560360D02*
X149160919Y-147893693D01*
X149160919Y-148750836D02*
X149160919Y-148179408D01*
X149160919Y-148465122D02*
X148160919Y-148465122D01*
X148160919Y-148465122D02*
X148303776Y-148369884D01*
X148303776Y-148369884D02*
X148399014Y-148274646D01*
X148399014Y-148274646D02*
X148446633Y-148179408D01*
D11*
X60020569Y-105334666D02*
X60734854Y-105334666D01*
X60734854Y-105334666D02*
X60877711Y-105287047D01*
X60877711Y-105287047D02*
X60972950Y-105191809D01*
X60972950Y-105191809D02*
X61020569Y-105048952D01*
X61020569Y-105048952D02*
X61020569Y-104953714D01*
X60115807Y-105763238D02*
X60068188Y-105810857D01*
X60068188Y-105810857D02*
X60020569Y-105906095D01*
X60020569Y-105906095D02*
X60020569Y-106144190D01*
X60020569Y-106144190D02*
X60068188Y-106239428D01*
X60068188Y-106239428D02*
X60115807Y-106287047D01*
X60115807Y-106287047D02*
X60211045Y-106334666D01*
X60211045Y-106334666D02*
X60306283Y-106334666D01*
X60306283Y-106334666D02*
X60449140Y-106287047D01*
X60449140Y-106287047D02*
X61020569Y-105715619D01*
X61020569Y-105715619D02*
X61020569Y-106334666D01*
X71846874Y-65264316D02*
X71846874Y-64835745D01*
X71589731Y-65350030D02*
X72489731Y-65050030D01*
X72489731Y-65050030D02*
X71589731Y-64750030D01*
X72489731Y-64535744D02*
X72489731Y-63978601D01*
X72489731Y-63978601D02*
X72146874Y-64278601D01*
X72146874Y-64278601D02*
X72146874Y-64150030D01*
X72146874Y-64150030D02*
X72104017Y-64064316D01*
X72104017Y-64064316D02*
X72061160Y-64021458D01*
X72061160Y-64021458D02*
X71975446Y-63978601D01*
X71975446Y-63978601D02*
X71761160Y-63978601D01*
X71761160Y-63978601D02*
X71675446Y-64021458D01*
X71675446Y-64021458D02*
X71632589Y-64064316D01*
X71632589Y-64064316D02*
X71589731Y-64150030D01*
X71589731Y-64150030D02*
X71589731Y-64407173D01*
X71589731Y-64407173D02*
X71632589Y-64492887D01*
X71632589Y-64492887D02*
X71675446Y-64535744D01*
X72404017Y-63635744D02*
X72446874Y-63592887D01*
X72446874Y-63592887D02*
X72489731Y-63507173D01*
X72489731Y-63507173D02*
X72489731Y-63292887D01*
X72489731Y-63292887D02*
X72446874Y-63207173D01*
X72446874Y-63207173D02*
X72404017Y-63164315D01*
X72404017Y-63164315D02*
X72318303Y-63121458D01*
X72318303Y-63121458D02*
X72232589Y-63121458D01*
X72232589Y-63121458D02*
X72104017Y-63164315D01*
X72104017Y-63164315D02*
X71589731Y-63678601D01*
X71589731Y-63678601D02*
X71589731Y-63121458D01*
X60653371Y-147942219D02*
X60610514Y-147813647D01*
X60610514Y-147813647D02*
X60567657Y-147770790D01*
X60567657Y-147770790D02*
X60481942Y-147727933D01*
X60481942Y-147727933D02*
X60353371Y-147727933D01*
X60353371Y-147727933D02*
X60267657Y-147770790D01*
X60267657Y-147770790D02*
X60224800Y-147813647D01*
X60224800Y-147813647D02*
X60181942Y-147899362D01*
X60181942Y-147899362D02*
X60181942Y-148242219D01*
X60181942Y-148242219D02*
X61081942Y-148242219D01*
X61081942Y-148242219D02*
X61081942Y-147942219D01*
X61081942Y-147942219D02*
X61039085Y-147856505D01*
X61039085Y-147856505D02*
X60996228Y-147813647D01*
X60996228Y-147813647D02*
X60910514Y-147770790D01*
X60910514Y-147770790D02*
X60824800Y-147770790D01*
X60824800Y-147770790D02*
X60739085Y-147813647D01*
X60739085Y-147813647D02*
X60696228Y-147856505D01*
X60696228Y-147856505D02*
X60653371Y-147942219D01*
X60653371Y-147942219D02*
X60653371Y-148242219D01*
X60181942Y-146870790D02*
X60181942Y-147385076D01*
X60181942Y-147127933D02*
X61081942Y-147127933D01*
X61081942Y-147127933D02*
X60953371Y-147213647D01*
X60953371Y-147213647D02*
X60867657Y-147299362D01*
X60867657Y-147299362D02*
X60824800Y-147385076D01*
X71846874Y-148285076D02*
X71846874Y-147856505D01*
X71589731Y-148370790D02*
X72489731Y-148070790D01*
X72489731Y-148070790D02*
X71589731Y-147770790D01*
X71589731Y-146999361D02*
X71589731Y-147513647D01*
X71589731Y-147256504D02*
X72489731Y-147256504D01*
X72489731Y-147256504D02*
X72361160Y-147342218D01*
X72361160Y-147342218D02*
X72275446Y-147427933D01*
X72275446Y-147427933D02*
X72232589Y-147513647D01*
X60653371Y-65050030D02*
X60610514Y-64921458D01*
X60610514Y-64921458D02*
X60567657Y-64878601D01*
X60567657Y-64878601D02*
X60481942Y-64835744D01*
X60481942Y-64835744D02*
X60353371Y-64835744D01*
X60353371Y-64835744D02*
X60267657Y-64878601D01*
X60267657Y-64878601D02*
X60224800Y-64921458D01*
X60224800Y-64921458D02*
X60181942Y-65007173D01*
X60181942Y-65007173D02*
X60181942Y-65350030D01*
X60181942Y-65350030D02*
X61081942Y-65350030D01*
X61081942Y-65350030D02*
X61081942Y-65050030D01*
X61081942Y-65050030D02*
X61039085Y-64964316D01*
X61039085Y-64964316D02*
X60996228Y-64921458D01*
X60996228Y-64921458D02*
X60910514Y-64878601D01*
X60910514Y-64878601D02*
X60824800Y-64878601D01*
X60824800Y-64878601D02*
X60739085Y-64921458D01*
X60739085Y-64921458D02*
X60696228Y-64964316D01*
X60696228Y-64964316D02*
X60653371Y-65050030D01*
X60653371Y-65050030D02*
X60653371Y-65350030D01*
X61081942Y-64535744D02*
X61081942Y-63978601D01*
X61081942Y-63978601D02*
X60739085Y-64278601D01*
X60739085Y-64278601D02*
X60739085Y-64150030D01*
X60739085Y-64150030D02*
X60696228Y-64064316D01*
X60696228Y-64064316D02*
X60653371Y-64021458D01*
X60653371Y-64021458D02*
X60567657Y-63978601D01*
X60567657Y-63978601D02*
X60353371Y-63978601D01*
X60353371Y-63978601D02*
X60267657Y-64021458D01*
X60267657Y-64021458D02*
X60224800Y-64064316D01*
X60224800Y-64064316D02*
X60181942Y-64150030D01*
X60181942Y-64150030D02*
X60181942Y-64407173D01*
X60181942Y-64407173D02*
X60224800Y-64492887D01*
X60224800Y-64492887D02*
X60267657Y-64535744D01*
X60996228Y-63635744D02*
X61039085Y-63592887D01*
X61039085Y-63592887D02*
X61081942Y-63507173D01*
X61081942Y-63507173D02*
X61081942Y-63292887D01*
X61081942Y-63292887D02*
X61039085Y-63207173D01*
X61039085Y-63207173D02*
X60996228Y-63164315D01*
X60996228Y-63164315D02*
X60910514Y-63121458D01*
X60910514Y-63121458D02*
X60824800Y-63121458D01*
X60824800Y-63121458D02*
X60696228Y-63164315D01*
X60696228Y-63164315D02*
X60181942Y-63678601D01*
X60181942Y-63678601D02*
X60181942Y-63121458D01*
X118804666Y-74721580D02*
X118852285Y-74769200D01*
X118852285Y-74769200D02*
X118995142Y-74816819D01*
X118995142Y-74816819D02*
X119090380Y-74816819D01*
X119090380Y-74816819D02*
X119233237Y-74769200D01*
X119233237Y-74769200D02*
X119328475Y-74673961D01*
X119328475Y-74673961D02*
X119376094Y-74578723D01*
X119376094Y-74578723D02*
X119423713Y-74388247D01*
X119423713Y-74388247D02*
X119423713Y-74245390D01*
X119423713Y-74245390D02*
X119376094Y-74054914D01*
X119376094Y-74054914D02*
X119328475Y-73959676D01*
X119328475Y-73959676D02*
X119233237Y-73864438D01*
X119233237Y-73864438D02*
X119090380Y-73816819D01*
X119090380Y-73816819D02*
X118995142Y-73816819D01*
X118995142Y-73816819D02*
X118852285Y-73864438D01*
X118852285Y-73864438D02*
X118804666Y-73912057D01*
X118423713Y-73912057D02*
X118376094Y-73864438D01*
X118376094Y-73864438D02*
X118280856Y-73816819D01*
X118280856Y-73816819D02*
X118042761Y-73816819D01*
X118042761Y-73816819D02*
X117947523Y-73864438D01*
X117947523Y-73864438D02*
X117899904Y-73912057D01*
X117899904Y-73912057D02*
X117852285Y-74007295D01*
X117852285Y-74007295D02*
X117852285Y-74102533D01*
X117852285Y-74102533D02*
X117899904Y-74245390D01*
X117899904Y-74245390D02*
X118471332Y-74816819D01*
X118471332Y-74816819D02*
X117852285Y-74816819D01*
X119648475Y-75520961D02*
X119648475Y-76054295D01*
X119838951Y-75216200D02*
X120029428Y-75787628D01*
X120029428Y-75787628D02*
X119534189Y-75787628D01*
X119305618Y-75254295D02*
X118772284Y-75254295D01*
X118772284Y-75254295D02*
X119115142Y-76054295D01*
X118467522Y-75520961D02*
X118467522Y-76320961D01*
X118086570Y-75940009D02*
X118048475Y-76016200D01*
X118048475Y-76016200D02*
X117972284Y-76054295D01*
X118467522Y-75940009D02*
X118429427Y-76016200D01*
X118429427Y-76016200D02*
X118353237Y-76054295D01*
X118353237Y-76054295D02*
X118200856Y-76054295D01*
X118200856Y-76054295D02*
X118124665Y-76016200D01*
X118124665Y-76016200D02*
X118086570Y-75940009D01*
X118086570Y-75940009D02*
X118086570Y-75520961D01*
X117362761Y-75635247D02*
X117629427Y-75635247D01*
X117629427Y-76054295D02*
X117629427Y-75254295D01*
X117629427Y-75254295D02*
X117248475Y-75254295D01*
X118829553Y-83357580D02*
X118877172Y-83405200D01*
X118877172Y-83405200D02*
X119020029Y-83452819D01*
X119020029Y-83452819D02*
X119115267Y-83452819D01*
X119115267Y-83452819D02*
X119258124Y-83405200D01*
X119258124Y-83405200D02*
X119353362Y-83309961D01*
X119353362Y-83309961D02*
X119400981Y-83214723D01*
X119400981Y-83214723D02*
X119448600Y-83024247D01*
X119448600Y-83024247D02*
X119448600Y-82881390D01*
X119448600Y-82881390D02*
X119400981Y-82690914D01*
X119400981Y-82690914D02*
X119353362Y-82595676D01*
X119353362Y-82595676D02*
X119258124Y-82500438D01*
X119258124Y-82500438D02*
X119115267Y-82452819D01*
X119115267Y-82452819D02*
X119020029Y-82452819D01*
X119020029Y-82452819D02*
X118877172Y-82500438D01*
X118877172Y-82500438D02*
X118829553Y-82548057D01*
X117877172Y-83452819D02*
X118448600Y-83452819D01*
X118162886Y-83452819D02*
X118162886Y-82452819D01*
X118162886Y-82452819D02*
X118258124Y-82595676D01*
X118258124Y-82595676D02*
X118353362Y-82690914D01*
X118353362Y-82690914D02*
X118448600Y-82738533D01*
X119608475Y-84156961D02*
X119608475Y-84690295D01*
X119798951Y-83852200D02*
X119989428Y-84423628D01*
X119989428Y-84423628D02*
X119494189Y-84423628D01*
X119265618Y-83890295D02*
X118732284Y-83890295D01*
X118732284Y-83890295D02*
X119075142Y-84690295D01*
X118427522Y-84156961D02*
X118427522Y-84956961D01*
X118046570Y-84576009D02*
X118008475Y-84652200D01*
X118008475Y-84652200D02*
X117932284Y-84690295D01*
X118427522Y-84576009D02*
X118389427Y-84652200D01*
X118389427Y-84652200D02*
X118313237Y-84690295D01*
X118313237Y-84690295D02*
X118160856Y-84690295D01*
X118160856Y-84690295D02*
X118084665Y-84652200D01*
X118084665Y-84652200D02*
X118046570Y-84576009D01*
X118046570Y-84576009D02*
X118046570Y-84156961D01*
X117322761Y-84271247D02*
X117589427Y-84271247D01*
X117589427Y-84690295D02*
X117589427Y-83890295D01*
X117589427Y-83890295D02*
X117208475Y-83890295D01*
D12*
%TO.C,J2*%
X61739000Y-148213000D02*
X71089000Y-148213000D01*
X61739000Y-148213000D02*
X61739000Y-63123000D01*
D11*
X61739000Y-63123000D02*
X71089000Y-63123000D01*
D12*
X63389000Y-63123000D02*
X69439000Y-63123000D01*
X71089000Y-63123000D02*
X71089000Y-148213000D01*
D13*
X69144000Y-148788000D02*
G75*
G03*
X69144000Y-148788000I-100000J0D01*
G01*
D14*
%TO.C,C2*%
X115833225Y-72087000D02*
X116333225Y-72087000D01*
X116083225Y-72337000D02*
X116083225Y-71837000D01*
X118638000Y-73192000D02*
X118638000Y-68032000D01*
X118678000Y-73192000D02*
X118678000Y-68032000D01*
X118718000Y-73191000D02*
X118718000Y-68033000D01*
X118758000Y-73190000D02*
X118758000Y-68034000D01*
X118798000Y-73188000D02*
X118798000Y-68036000D01*
X118838000Y-73185000D02*
X118838000Y-68039000D01*
X118878000Y-69572000D02*
X118878000Y-68043000D01*
X118878000Y-73181000D02*
X118878000Y-71652000D01*
X118918000Y-69572000D02*
X118918000Y-68047000D01*
X118918000Y-73177000D02*
X118918000Y-71652000D01*
X118958000Y-69572000D02*
X118958000Y-68051000D01*
X118958000Y-73173000D02*
X118958000Y-71652000D01*
X118998000Y-69572000D02*
X118998000Y-68056000D01*
X118998000Y-73168000D02*
X118998000Y-71652000D01*
X119038000Y-69572000D02*
X119038000Y-68062000D01*
X119038000Y-73162000D02*
X119038000Y-71652000D01*
X119078000Y-69572000D02*
X119078000Y-68069000D01*
X119078000Y-73155000D02*
X119078000Y-71652000D01*
X119118000Y-69572000D02*
X119118000Y-68076000D01*
X119118000Y-73148000D02*
X119118000Y-71652000D01*
X119158000Y-69572000D02*
X119158000Y-68084000D01*
X119158000Y-73140000D02*
X119158000Y-71652000D01*
X119198000Y-69572000D02*
X119198000Y-68092000D01*
X119198000Y-73132000D02*
X119198000Y-71652000D01*
X119238000Y-69572000D02*
X119238000Y-68101000D01*
X119238000Y-73123000D02*
X119238000Y-71652000D01*
X119278000Y-69572000D02*
X119278000Y-68111000D01*
X119278000Y-73113000D02*
X119278000Y-71652000D01*
X119318000Y-69572000D02*
X119318000Y-68121000D01*
X119318000Y-73103000D02*
X119318000Y-71652000D01*
X119359000Y-69572000D02*
X119359000Y-68132000D01*
X119359000Y-73092000D02*
X119359000Y-71652000D01*
X119399000Y-69572000D02*
X119399000Y-68144000D01*
X119399000Y-73080000D02*
X119399000Y-71652000D01*
X119439000Y-69572000D02*
X119439000Y-68157000D01*
X119439000Y-73067000D02*
X119439000Y-71652000D01*
X119479000Y-69572000D02*
X119479000Y-68170000D01*
X119479000Y-73054000D02*
X119479000Y-71652000D01*
X119519000Y-69572000D02*
X119519000Y-68184000D01*
X119519000Y-73040000D02*
X119519000Y-71652000D01*
X119559000Y-69572000D02*
X119559000Y-68198000D01*
X119559000Y-73026000D02*
X119559000Y-71652000D01*
X119599000Y-69572000D02*
X119599000Y-68214000D01*
X119599000Y-73010000D02*
X119599000Y-71652000D01*
X119639000Y-69572000D02*
X119639000Y-68230000D01*
X119639000Y-72994000D02*
X119639000Y-71652000D01*
X119679000Y-69572000D02*
X119679000Y-68247000D01*
X119679000Y-72977000D02*
X119679000Y-71652000D01*
X119719000Y-69572000D02*
X119719000Y-68264000D01*
X119719000Y-72960000D02*
X119719000Y-71652000D01*
X119759000Y-69572000D02*
X119759000Y-68283000D01*
X119759000Y-72941000D02*
X119759000Y-71652000D01*
X119799000Y-69572000D02*
X119799000Y-68302000D01*
X119799000Y-72922000D02*
X119799000Y-71652000D01*
X119839000Y-69572000D02*
X119839000Y-68322000D01*
X119839000Y-72902000D02*
X119839000Y-71652000D01*
X119879000Y-69572000D02*
X119879000Y-68344000D01*
X119879000Y-72880000D02*
X119879000Y-71652000D01*
X119919000Y-69572000D02*
X119919000Y-68365000D01*
X119919000Y-72859000D02*
X119919000Y-71652000D01*
X119959000Y-69572000D02*
X119959000Y-68388000D01*
X119959000Y-72836000D02*
X119959000Y-71652000D01*
X119999000Y-69572000D02*
X119999000Y-68412000D01*
X119999000Y-72812000D02*
X119999000Y-71652000D01*
X120039000Y-69572000D02*
X120039000Y-68437000D01*
X120039000Y-72787000D02*
X120039000Y-71652000D01*
X120079000Y-69572000D02*
X120079000Y-68463000D01*
X120079000Y-72761000D02*
X120079000Y-71652000D01*
X120119000Y-69572000D02*
X120119000Y-68490000D01*
X120119000Y-72734000D02*
X120119000Y-71652000D01*
X120159000Y-69572000D02*
X120159000Y-68517000D01*
X120159000Y-72707000D02*
X120159000Y-71652000D01*
X120199000Y-69572000D02*
X120199000Y-68547000D01*
X120199000Y-72677000D02*
X120199000Y-71652000D01*
X120239000Y-69572000D02*
X120239000Y-68577000D01*
X120239000Y-72647000D02*
X120239000Y-71652000D01*
X120279000Y-69572000D02*
X120279000Y-68608000D01*
X120279000Y-72616000D02*
X120279000Y-71652000D01*
X120319000Y-69572000D02*
X120319000Y-68641000D01*
X120319000Y-72583000D02*
X120319000Y-71652000D01*
X120359000Y-69572000D02*
X120359000Y-68675000D01*
X120359000Y-72549000D02*
X120359000Y-71652000D01*
X120399000Y-69572000D02*
X120399000Y-68711000D01*
X120399000Y-72513000D02*
X120399000Y-71652000D01*
X120439000Y-69572000D02*
X120439000Y-68748000D01*
X120439000Y-72476000D02*
X120439000Y-71652000D01*
X120479000Y-69572000D02*
X120479000Y-68786000D01*
X120479000Y-72438000D02*
X120479000Y-71652000D01*
X120519000Y-69572000D02*
X120519000Y-68827000D01*
X120519000Y-72397000D02*
X120519000Y-71652000D01*
X120559000Y-69572000D02*
X120559000Y-68869000D01*
X120559000Y-72355000D02*
X120559000Y-71652000D01*
X120599000Y-69572000D02*
X120599000Y-68913000D01*
X120599000Y-72311000D02*
X120599000Y-71652000D01*
X120639000Y-69572000D02*
X120639000Y-68959000D01*
X120639000Y-72265000D02*
X120639000Y-71652000D01*
X120679000Y-69572000D02*
X120679000Y-69007000D01*
X120679000Y-72217000D02*
X120679000Y-71652000D01*
X120719000Y-69572000D02*
X120719000Y-69058000D01*
X120719000Y-72166000D02*
X120719000Y-71652000D01*
X120759000Y-69572000D02*
X120759000Y-69112000D01*
X120759000Y-72112000D02*
X120759000Y-71652000D01*
X120799000Y-69572000D02*
X120799000Y-69169000D01*
X120799000Y-72055000D02*
X120799000Y-71652000D01*
X120839000Y-69572000D02*
X120839000Y-69229000D01*
X120839000Y-71995000D02*
X120839000Y-71652000D01*
X120879000Y-69572000D02*
X120879000Y-69293000D01*
X120879000Y-71931000D02*
X120879000Y-71652000D01*
X120919000Y-69572000D02*
X120919000Y-69361000D01*
X120919000Y-71863000D02*
X120919000Y-71652000D01*
X120959000Y-71790000D02*
X120959000Y-69434000D01*
X120999000Y-71710000D02*
X120999000Y-69514000D01*
X121039000Y-71623000D02*
X121039000Y-69601000D01*
X121079000Y-71527000D02*
X121079000Y-69697000D01*
X121119000Y-71417000D02*
X121119000Y-69807000D01*
X121159000Y-71289000D02*
X121159000Y-69935000D01*
X121199000Y-71130000D02*
X121199000Y-70094000D01*
X121239000Y-70896000D02*
X121239000Y-70328000D01*
X121258000Y-70612000D02*
G75*
G03*
X121258000Y-70612000I-2620000J0D01*
G01*
%TO.C,C1*%
X115858112Y-80723000D02*
X116358112Y-80723000D01*
X116108112Y-80973000D02*
X116108112Y-80473000D01*
X118662887Y-81828000D02*
X118662887Y-76668000D01*
X118702887Y-81828000D02*
X118702887Y-76668000D01*
X118742887Y-81827000D02*
X118742887Y-76669000D01*
X118782887Y-81826000D02*
X118782887Y-76670000D01*
X118822887Y-81824000D02*
X118822887Y-76672000D01*
X118862887Y-81821000D02*
X118862887Y-76675000D01*
X118902887Y-78208000D02*
X118902887Y-76679000D01*
X118902887Y-81817000D02*
X118902887Y-80288000D01*
X118942887Y-78208000D02*
X118942887Y-76683000D01*
X118942887Y-81813000D02*
X118942887Y-80288000D01*
X118982887Y-78208000D02*
X118982887Y-76687000D01*
X118982887Y-81809000D02*
X118982887Y-80288000D01*
X119022887Y-78208000D02*
X119022887Y-76692000D01*
X119022887Y-81804000D02*
X119022887Y-80288000D01*
X119062887Y-78208000D02*
X119062887Y-76698000D01*
X119062887Y-81798000D02*
X119062887Y-80288000D01*
X119102887Y-78208000D02*
X119102887Y-76705000D01*
X119102887Y-81791000D02*
X119102887Y-80288000D01*
X119142887Y-78208000D02*
X119142887Y-76712000D01*
X119142887Y-81784000D02*
X119142887Y-80288000D01*
X119182887Y-78208000D02*
X119182887Y-76720000D01*
X119182887Y-81776000D02*
X119182887Y-80288000D01*
X119222887Y-78208000D02*
X119222887Y-76728000D01*
X119222887Y-81768000D02*
X119222887Y-80288000D01*
X119262887Y-78208000D02*
X119262887Y-76737000D01*
X119262887Y-81759000D02*
X119262887Y-80288000D01*
X119302887Y-78208000D02*
X119302887Y-76747000D01*
X119302887Y-81749000D02*
X119302887Y-80288000D01*
X119342887Y-78208000D02*
X119342887Y-76757000D01*
X119342887Y-81739000D02*
X119342887Y-80288000D01*
X119383887Y-78208000D02*
X119383887Y-76768000D01*
X119383887Y-81728000D02*
X119383887Y-80288000D01*
X119423887Y-78208000D02*
X119423887Y-76780000D01*
X119423887Y-81716000D02*
X119423887Y-80288000D01*
X119463887Y-78208000D02*
X119463887Y-76793000D01*
X119463887Y-81703000D02*
X119463887Y-80288000D01*
X119503887Y-78208000D02*
X119503887Y-76806000D01*
X119503887Y-81690000D02*
X119503887Y-80288000D01*
X119543887Y-78208000D02*
X119543887Y-76820000D01*
X119543887Y-81676000D02*
X119543887Y-80288000D01*
X119583887Y-78208000D02*
X119583887Y-76834000D01*
X119583887Y-81662000D02*
X119583887Y-80288000D01*
X119623887Y-78208000D02*
X119623887Y-76850000D01*
X119623887Y-81646000D02*
X119623887Y-80288000D01*
X119663887Y-78208000D02*
X119663887Y-76866000D01*
X119663887Y-81630000D02*
X119663887Y-80288000D01*
X119703887Y-78208000D02*
X119703887Y-76883000D01*
X119703887Y-81613000D02*
X119703887Y-80288000D01*
X119743887Y-78208000D02*
X119743887Y-76900000D01*
X119743887Y-81596000D02*
X119743887Y-80288000D01*
X119783887Y-78208000D02*
X119783887Y-76919000D01*
X119783887Y-81577000D02*
X119783887Y-80288000D01*
X119823887Y-78208000D02*
X119823887Y-76938000D01*
X119823887Y-81558000D02*
X119823887Y-80288000D01*
X119863887Y-78208000D02*
X119863887Y-76958000D01*
X119863887Y-81538000D02*
X119863887Y-80288000D01*
X119903887Y-78208000D02*
X119903887Y-76980000D01*
X119903887Y-81516000D02*
X119903887Y-80288000D01*
X119943887Y-78208000D02*
X119943887Y-77001000D01*
X119943887Y-81495000D02*
X119943887Y-80288000D01*
X119983887Y-78208000D02*
X119983887Y-77024000D01*
X119983887Y-81472000D02*
X119983887Y-80288000D01*
X120023887Y-78208000D02*
X120023887Y-77048000D01*
X120023887Y-81448000D02*
X120023887Y-80288000D01*
X120063887Y-78208000D02*
X120063887Y-77073000D01*
X120063887Y-81423000D02*
X120063887Y-80288000D01*
X120103887Y-78208000D02*
X120103887Y-77099000D01*
X120103887Y-81397000D02*
X120103887Y-80288000D01*
X120143887Y-78208000D02*
X120143887Y-77126000D01*
X120143887Y-81370000D02*
X120143887Y-80288000D01*
X120183887Y-78208000D02*
X120183887Y-77153000D01*
X120183887Y-81343000D02*
X120183887Y-80288000D01*
X120223887Y-78208000D02*
X120223887Y-77183000D01*
X120223887Y-81313000D02*
X120223887Y-80288000D01*
X120263887Y-78208000D02*
X120263887Y-77213000D01*
X120263887Y-81283000D02*
X120263887Y-80288000D01*
X120303887Y-78208000D02*
X120303887Y-77244000D01*
X120303887Y-81252000D02*
X120303887Y-80288000D01*
X120343887Y-78208000D02*
X120343887Y-77277000D01*
X120343887Y-81219000D02*
X120343887Y-80288000D01*
X120383887Y-78208000D02*
X120383887Y-77311000D01*
X120383887Y-81185000D02*
X120383887Y-80288000D01*
X120423887Y-78208000D02*
X120423887Y-77347000D01*
X120423887Y-81149000D02*
X120423887Y-80288000D01*
X120463887Y-78208000D02*
X120463887Y-77384000D01*
X120463887Y-81112000D02*
X120463887Y-80288000D01*
X120503887Y-78208000D02*
X120503887Y-77422000D01*
X120503887Y-81074000D02*
X120503887Y-80288000D01*
X120543887Y-78208000D02*
X120543887Y-77463000D01*
X120543887Y-81033000D02*
X120543887Y-80288000D01*
X120583887Y-78208000D02*
X120583887Y-77505000D01*
X120583887Y-80991000D02*
X120583887Y-80288000D01*
X120623887Y-78208000D02*
X120623887Y-77549000D01*
X120623887Y-80947000D02*
X120623887Y-80288000D01*
X120663887Y-78208000D02*
X120663887Y-77595000D01*
X120663887Y-80901000D02*
X120663887Y-80288000D01*
X120703887Y-78208000D02*
X120703887Y-77643000D01*
X120703887Y-80853000D02*
X120703887Y-80288000D01*
X120743887Y-78208000D02*
X120743887Y-77694000D01*
X120743887Y-80802000D02*
X120743887Y-80288000D01*
X120783887Y-78208000D02*
X120783887Y-77748000D01*
X120783887Y-80748000D02*
X120783887Y-80288000D01*
X120823887Y-78208000D02*
X120823887Y-77805000D01*
X120823887Y-80691000D02*
X120823887Y-80288000D01*
X120863887Y-78208000D02*
X120863887Y-77865000D01*
X120863887Y-80631000D02*
X120863887Y-80288000D01*
X120903887Y-78208000D02*
X120903887Y-77929000D01*
X120903887Y-80567000D02*
X120903887Y-80288000D01*
X120943887Y-78208000D02*
X120943887Y-77997000D01*
X120943887Y-80499000D02*
X120943887Y-80288000D01*
X120983887Y-80426000D02*
X120983887Y-78070000D01*
X121023887Y-80346000D02*
X121023887Y-78150000D01*
X121063887Y-80259000D02*
X121063887Y-78237000D01*
X121103887Y-80163000D02*
X121103887Y-78333000D01*
X121143887Y-80053000D02*
X121143887Y-78443000D01*
X121183887Y-79925000D02*
X121183887Y-78571000D01*
X121223887Y-79766000D02*
X121223887Y-78730000D01*
X121263887Y-79532000D02*
X121263887Y-78964000D01*
X121282887Y-79248000D02*
G75*
G03*
X121282887Y-79248000I-2620000J0D01*
G01*
%TD*%
M02*
