%TF.GenerationSoftware,KiCad,Pcbnew,7.0.8*%
%TF.CreationDate,2023-12-05T21:31:03-08:00*%
%TF.ProjectId,Teradrive Mega CD Adapter,54657261-6472-4697-9665-204d65676120,1*%
%TF.SameCoordinates,Original*%
%TF.FileFunction,Soldermask,Top*%
%TF.FilePolarity,Negative*%
%FSLAX46Y46*%
G04 Gerber Fmt 4.6, Leading zero omitted, Abs format (unit mm)*
G04 Created by KiCad (PCBNEW 7.0.8) date 2023-12-05 21:31:03*
%MOMM*%
%LPD*%
G01*
G04 APERTURE LIST*
G04 Aperture macros list*
%AMRoundRect*
0 Rectangle with rounded corners*
0 $1 Rounding radius*
0 $2 $3 $4 $5 $6 $7 $8 $9 X,Y pos of 4 corners*
0 Add a 4 corners polygon primitive as box body*
4,1,4,$2,$3,$4,$5,$6,$7,$8,$9,$2,$3,0*
0 Add four circle primitives for the rounded corners*
1,1,$1+$1,$2,$3*
1,1,$1+$1,$4,$5*
1,1,$1+$1,$6,$7*
1,1,$1+$1,$8,$9*
0 Add four rect primitives between the rounded corners*
20,1,$1+$1,$2,$3,$4,$5,0*
20,1,$1+$1,$4,$5,$6,$7,0*
20,1,$1+$1,$6,$7,$8,$9,0*
20,1,$1+$1,$8,$9,$2,$3,0*%
%AMFreePoly0*
4,1,19,0.500000,-0.750000,0.000000,-0.750000,0.000000,-0.744911,-0.071157,-0.744911,-0.207708,-0.704816,-0.327430,-0.627875,-0.420627,-0.520320,-0.479746,-0.390866,-0.500000,-0.250000,-0.500000,0.250000,-0.479746,0.390866,-0.420627,0.520320,-0.327430,0.627875,-0.207708,0.704816,-0.071157,0.744911,0.000000,0.744911,0.000000,0.750000,0.500000,0.750000,0.500000,-0.750000,0.500000,-0.750000,
$1*%
%AMFreePoly1*
4,1,19,0.000000,0.744911,0.071157,0.744911,0.207708,0.704816,0.327430,0.627875,0.420627,0.520320,0.479746,0.390866,0.500000,0.250000,0.500000,-0.250000,0.479746,-0.390866,0.420627,-0.520320,0.327430,-0.627875,0.207708,-0.704816,0.071157,-0.744911,0.000000,-0.744911,0.000000,-0.750000,-0.500000,-0.750000,-0.500000,0.750000,0.000000,0.750000,0.000000,0.744911,0.000000,0.744911,
$1*%
G04 Aperture macros list end*
%ADD10C,0.100000*%
%ADD11FreePoly0,0.000000*%
%ADD12FreePoly1,0.000000*%
%ADD13C,1.500000*%
%ADD14R,1.700000X1.700000*%
%ADD15O,1.700000X1.700000*%
%ADD16C,1.600000*%
%ADD17O,1.600000X1.600000*%
%ADD18R,1.800000X1.800000*%
%ADD19C,1.800000*%
%ADD20R,1.600000X1.600000*%
%ADD21RoundRect,0.102000X0.765000X-0.765000X0.765000X0.765000X-0.765000X0.765000X-0.765000X-0.765000X0*%
%ADD22C,1.734000*%
G04 APERTURE END LIST*
D10*
%TO.C,J4*%
X157549224Y-149614394D02*
G75*
G03*
X158819224Y-148344394I806J1269194D01*
G01*
X158813500Y-72136000D02*
G75*
G03*
X157543500Y-70866000I-1269200J800D01*
G01*
X158441762Y-71237738D02*
X158813500Y-72136000D01*
X158819224Y-148344394D01*
X158447486Y-149242656D01*
X157549224Y-149614394D01*
X149923500Y-149606000D01*
X149923500Y-70866000D01*
X157543500Y-70866000D01*
X158441762Y-71237738D01*
G36*
X158441762Y-71237738D02*
G01*
X158813500Y-72136000D01*
X158819224Y-148344394D01*
X158447486Y-149242656D01*
X157549224Y-149614394D01*
X149923500Y-149606000D01*
X149923500Y-70866000D01*
X157543500Y-70866000D01*
X158441762Y-71237738D01*
G37*
%TD*%
D11*
%TO.C,JPA25*%
X99060000Y-84074000D03*
D12*
X100360000Y-84074000D03*
%TD*%
D13*
%TO.C,TPA8*%
X99568000Y-127254000D03*
%TD*%
D11*
%TO.C,JPA3*%
X99060000Y-139954000D03*
D12*
X100360000Y-139954000D03*
%TD*%
D11*
%TO.C,JPA6*%
X99030000Y-132334000D03*
D12*
X100330000Y-132334000D03*
%TD*%
D11*
%TO.C,JPA14*%
X99060000Y-112014000D03*
D12*
X100360000Y-112014000D03*
%TD*%
D11*
%TO.C,JPB20*%
X82012000Y-96774000D03*
D12*
X83312000Y-96774000D03*
%TD*%
D14*
%TO.C,J3*%
X132334000Y-147061000D03*
D15*
X132334000Y-144521000D03*
X132334000Y-141981000D03*
X132334000Y-139441000D03*
X132334000Y-136901000D03*
X132334000Y-134361000D03*
X132334000Y-131821000D03*
X132334000Y-129281000D03*
X132334000Y-126741000D03*
X132334000Y-124201000D03*
X132334000Y-121661000D03*
X132334000Y-119121000D03*
X132334000Y-116581000D03*
X132334000Y-114041000D03*
X132334000Y-111501000D03*
X132334000Y-108961000D03*
X132334000Y-106421000D03*
X132334000Y-103881000D03*
X132334000Y-101341000D03*
X132334000Y-98801000D03*
X132334000Y-96261000D03*
X132334000Y-93721000D03*
X132334000Y-91181000D03*
X132334000Y-88641000D03*
X132334000Y-86101000D03*
X132334000Y-83561000D03*
X132334000Y-81021000D03*
X132334000Y-78481000D03*
X132334000Y-75941000D03*
X132334000Y-73401000D03*
X129794000Y-147061000D03*
X129794000Y-144521000D03*
X129794000Y-141981000D03*
X129794000Y-139441000D03*
X129794000Y-136901000D03*
X129794000Y-134361000D03*
X129794000Y-131821000D03*
X129794000Y-129281000D03*
X129794000Y-126741000D03*
X129794000Y-124201000D03*
X129794000Y-121661000D03*
X129794000Y-119121000D03*
X129794000Y-116581000D03*
X129794000Y-114041000D03*
X129794000Y-111501000D03*
X129794000Y-108961000D03*
X129794000Y-106421000D03*
X129794000Y-103881000D03*
X129794000Y-101341000D03*
X129794000Y-98801000D03*
X129794000Y-96261000D03*
X129794000Y-93721000D03*
X129794000Y-91181000D03*
X129794000Y-88641000D03*
X129794000Y-86101000D03*
X129794000Y-83561000D03*
X129794000Y-81021000D03*
X129794000Y-78481000D03*
X129794000Y-75941000D03*
X129794000Y-73401000D03*
%TD*%
D11*
%TO.C,JPB29*%
X82012000Y-73914000D03*
D12*
X83312000Y-73914000D03*
%TD*%
D11*
%TO.C,JPB3*%
X82012000Y-139954000D03*
D12*
X83312000Y-139954000D03*
%TD*%
D11*
%TO.C,JPB30*%
X82012000Y-71374000D03*
D12*
X83312000Y-71374000D03*
%TD*%
D16*
%TO.C,R1*%
X87376000Y-118364000D03*
D17*
X87376000Y-108204000D03*
%TD*%
D11*
%TO.C,JPA11*%
X99060000Y-119634000D03*
D12*
X100360000Y-119634000D03*
%TD*%
D11*
%TO.C,JPA16*%
X99060000Y-106934000D03*
D12*
X100360000Y-106934000D03*
%TD*%
D11*
%TO.C,JPB32*%
X82012000Y-66548000D03*
D12*
X83312000Y-66548000D03*
%TD*%
D11*
%TO.C,JPB11*%
X82012000Y-119634000D03*
D12*
X83312000Y-119634000D03*
%TD*%
D11*
%TO.C,JPB10*%
X82012000Y-122174000D03*
D12*
X83312000Y-122174000D03*
%TD*%
D18*
%TO.C,D4*%
X138430000Y-105664000D03*
D19*
X138430000Y-103124000D03*
%TD*%
D18*
%TO.C,D2*%
X92964000Y-99563000D03*
D19*
X92964000Y-102103000D03*
%TD*%
D11*
%TO.C,JPA23*%
X99060000Y-89154000D03*
D12*
X100360000Y-89154000D03*
%TD*%
D11*
%TO.C,JPA26*%
X99060000Y-81534000D03*
D12*
X100360000Y-81534000D03*
%TD*%
D11*
%TO.C,JPA4*%
X99030000Y-137414000D03*
D12*
X100330000Y-137414000D03*
%TD*%
D13*
%TO.C,TPA2*%
X99568000Y-142494000D03*
%TD*%
%TO.C,TPA9*%
X99568000Y-124714000D03*
%TD*%
%TO.C,TPSL3*%
X111054971Y-65950900D03*
%TD*%
D11*
%TO.C,JPB6*%
X82012000Y-132334000D03*
D12*
X83312000Y-132334000D03*
%TD*%
D11*
%TO.C,JPB18*%
X82012000Y-101854000D03*
D12*
X83312000Y-101854000D03*
%TD*%
D14*
%TO.C,J1*%
X113792000Y-142743000D03*
D15*
X113792000Y-140203000D03*
X113792000Y-137663000D03*
X113792000Y-135123000D03*
X113792000Y-132583000D03*
X113792000Y-130043000D03*
X113792000Y-127503000D03*
X113792000Y-124963000D03*
X113792000Y-122423000D03*
X113792000Y-119883000D03*
X113792000Y-117343000D03*
X113792000Y-114803000D03*
X113792000Y-112263000D03*
X113792000Y-109723000D03*
X113792000Y-107183000D03*
X113792000Y-104643000D03*
X113792000Y-102103000D03*
X113792000Y-99563000D03*
X113792000Y-97023000D03*
X113792000Y-94483000D03*
X113792000Y-91943000D03*
X113792000Y-89403000D03*
X113792000Y-86863000D03*
X113792000Y-84323000D03*
X113792000Y-81783000D03*
X113792000Y-79243000D03*
X113792000Y-76703000D03*
X113792000Y-74163000D03*
X113792000Y-71623000D03*
X113792000Y-69083000D03*
X111252000Y-142743000D03*
X111252000Y-140203000D03*
X111252000Y-137663000D03*
X111252000Y-135123000D03*
X111252000Y-132583000D03*
X111252000Y-130043000D03*
X111252000Y-127503000D03*
X111252000Y-124963000D03*
X111252000Y-122423000D03*
X111252000Y-119883000D03*
X111252000Y-117343000D03*
X111252000Y-114803000D03*
X111252000Y-112263000D03*
X111252000Y-109723000D03*
X111252000Y-107183000D03*
X111252000Y-104643000D03*
X111252000Y-102103000D03*
X111252000Y-99563000D03*
X111252000Y-97023000D03*
X111252000Y-94483000D03*
X111252000Y-91943000D03*
X111252000Y-89403000D03*
X111252000Y-86863000D03*
X111252000Y-84323000D03*
X111252000Y-81783000D03*
X111252000Y-79243000D03*
X111252000Y-76703000D03*
X111252000Y-74163000D03*
X111252000Y-71623000D03*
X111252000Y-69083000D03*
%TD*%
D16*
%TO.C,R3*%
X136398000Y-114808000D03*
D17*
X136398000Y-124968000D03*
%TD*%
D11*
%TO.C,JPA12*%
X99060000Y-117094000D03*
D12*
X100360000Y-117094000D03*
%TD*%
D18*
%TO.C,D1*%
X92964000Y-112009000D03*
D19*
X92964000Y-114549000D03*
%TD*%
D11*
%TO.C,JPA32*%
X99060000Y-66548000D03*
D12*
X100360000Y-66548000D03*
%TD*%
D11*
%TO.C,JPB21*%
X82012000Y-94234000D03*
D12*
X83312000Y-94234000D03*
%TD*%
D11*
%TO.C,JPA29*%
X99060000Y-73914000D03*
D12*
X100360000Y-73914000D03*
%TD*%
D11*
%TO.C,JPB23*%
X82012000Y-89154000D03*
D12*
X83312000Y-89154000D03*
%TD*%
D11*
%TO.C,JPB28*%
X82012000Y-76454000D03*
D12*
X83312000Y-76454000D03*
%TD*%
D13*
%TO.C,TPA19*%
X99568000Y-99314000D03*
%TD*%
D11*
%TO.C,JPB13*%
X82012000Y-114554000D03*
D12*
X83312000Y-114554000D03*
%TD*%
D11*
%TO.C,JPA17*%
X99060000Y-104394000D03*
D12*
X100360000Y-104394000D03*
%TD*%
D11*
%TO.C,JPA1*%
X99060000Y-145034000D03*
D12*
X100360000Y-145034000D03*
%TD*%
D16*
%TO.C,R2*%
X87376000Y-95758000D03*
D17*
X87376000Y-105918000D03*
%TD*%
D11*
%TO.C,JPB1*%
X82012000Y-145034000D03*
D12*
X83312000Y-145034000D03*
%TD*%
D11*
%TO.C,JPB12*%
X82012000Y-117094000D03*
D12*
X83312000Y-117094000D03*
%TD*%
D11*
%TO.C,JPA27*%
X99060000Y-78994000D03*
D12*
X100360000Y-78994000D03*
%TD*%
D11*
%TO.C,JPB7*%
X82012000Y-129794000D03*
D12*
X83312000Y-129794000D03*
%TD*%
D18*
%TO.C,D3*%
X138430000Y-111516000D03*
D19*
X138430000Y-108976000D03*
%TD*%
D11*
%TO.C,JPB5*%
X82012000Y-134874000D03*
D12*
X83312000Y-134874000D03*
%TD*%
D11*
%TO.C,JPB9*%
X82012000Y-124737890D03*
D12*
X83312000Y-124737890D03*
%TD*%
D13*
%TO.C,TPA30*%
X99568000Y-71374000D03*
%TD*%
D11*
%TO.C,JPA5*%
X99030000Y-134874000D03*
D12*
X100330000Y-134874000D03*
%TD*%
D11*
%TO.C,JPB26*%
X82012000Y-81534000D03*
D12*
X83312000Y-81534000D03*
%TD*%
D11*
%TO.C,JPB16*%
X82012000Y-106934000D03*
D12*
X83312000Y-106934000D03*
%TD*%
D20*
%TO.C,C3*%
X138684000Y-82485113D03*
D16*
X138684000Y-79985113D03*
%TD*%
D11*
%TO.C,JPB8*%
X82012000Y-127254000D03*
D12*
X83312000Y-127254000D03*
%TD*%
D13*
%TO.C,TPSR3*%
X120198971Y-65950900D03*
%TD*%
D11*
%TO.C,JPB14*%
X82012000Y-112014000D03*
D12*
X83312000Y-112014000D03*
%TD*%
D20*
%TO.C,C4*%
X138684000Y-76135113D03*
D16*
X138684000Y-73635113D03*
%TD*%
D13*
%TO.C,TPA21*%
X99568000Y-94234000D03*
%TD*%
%TO.C,TP9V1*%
X119380000Y-146812000D03*
%TD*%
D11*
%TO.C,JPB22*%
X82012000Y-91694000D03*
D12*
X83312000Y-91694000D03*
%TD*%
D14*
%TO.C,JPB2*%
X95758000Y-139446000D03*
D15*
X95758000Y-141986000D03*
X95758000Y-144526000D03*
%TD*%
D11*
%TO.C,JPA15*%
X99060000Y-109474000D03*
D12*
X100360000Y-109474000D03*
%TD*%
D11*
%TO.C,JPB25*%
X82012000Y-84074000D03*
D12*
X83312000Y-84074000D03*
%TD*%
D13*
%TO.C,TPA7*%
X99568000Y-129794000D03*
%TD*%
%TO.C,TPA10*%
X99568000Y-122174000D03*
%TD*%
D11*
%TO.C,JPB15*%
X82012000Y-109474000D03*
D12*
X83312000Y-109474000D03*
%TD*%
D13*
%TO.C,TPA20*%
X99568000Y-96774000D03*
%TD*%
D11*
%TO.C,JPB17*%
X82012000Y-104394000D03*
D12*
X83312000Y-104394000D03*
%TD*%
D11*
%TO.C,JPB24*%
X82012000Y-86614000D03*
D12*
X83312000Y-86614000D03*
%TD*%
D11*
%TO.C,JPA24*%
X99060000Y-86614000D03*
D12*
X100360000Y-86614000D03*
%TD*%
D14*
%TO.C,JPA31*%
X96012000Y-66548000D03*
D15*
X96012000Y-69088000D03*
X96012000Y-71628000D03*
%TD*%
D11*
%TO.C,JPA22*%
X99060000Y-91694000D03*
D12*
X100360000Y-91694000D03*
%TD*%
D13*
%TO.C,TPA18*%
X99568000Y-101854000D03*
%TD*%
D16*
%TO.C,R4*%
X141224000Y-114808000D03*
D17*
X141224000Y-124968000D03*
%TD*%
D11*
%TO.C,JPA28*%
X99060000Y-76454000D03*
D12*
X100360000Y-76454000D03*
%TD*%
D11*
%TO.C,JPB4*%
X82012000Y-137414000D03*
D12*
X83312000Y-137414000D03*
%TD*%
D14*
%TO.C,JPB31*%
X96012000Y-78206560D03*
D15*
X96012000Y-80746560D03*
X96012000Y-83286560D03*
%TD*%
D11*
%TO.C,JPB27*%
X82012000Y-78994000D03*
D12*
X83312000Y-78994000D03*
%TD*%
D11*
%TO.C,JPA13*%
X99060000Y-114554000D03*
D12*
X100360000Y-114554000D03*
%TD*%
D11*
%TO.C,JPB19*%
X82012000Y-99314000D03*
D12*
X83312000Y-99314000D03*
%TD*%
D21*
%TO.C,J2*%
X68834000Y-145038000D03*
D22*
X68834000Y-142498000D03*
X68834000Y-139958000D03*
X68834000Y-137418000D03*
X68834000Y-134878000D03*
X68834000Y-132338000D03*
X68834000Y-129798000D03*
X68834000Y-127258000D03*
X68834000Y-124718000D03*
X68834000Y-122178000D03*
X68834000Y-119638000D03*
X68834000Y-117098000D03*
X68834000Y-114558000D03*
X68834000Y-112018000D03*
X68834000Y-109478000D03*
X68834000Y-106938000D03*
X68834000Y-104398000D03*
X68834000Y-101858000D03*
X68834000Y-99318000D03*
X68834000Y-96778000D03*
X68834000Y-94238000D03*
X68834000Y-91698000D03*
X68834000Y-89158000D03*
X68834000Y-86618000D03*
X68834000Y-84078000D03*
X68834000Y-81538000D03*
X68834000Y-78998000D03*
X68834000Y-76458000D03*
X68834000Y-73918000D03*
X68834000Y-71378000D03*
X68834000Y-68838000D03*
X68834000Y-66298000D03*
X63994000Y-145038000D03*
X63994000Y-142498000D03*
X63994000Y-139958000D03*
X63994000Y-137418000D03*
X63994000Y-134878000D03*
X63994000Y-132338000D03*
X63994000Y-129798000D03*
X63994000Y-127258000D03*
X63994000Y-124718000D03*
X63994000Y-122178000D03*
X63994000Y-119638000D03*
X63994000Y-117098000D03*
X63994000Y-114558000D03*
X63994000Y-112018000D03*
X63994000Y-109478000D03*
X63994000Y-106938000D03*
X63994000Y-104398000D03*
X63994000Y-101858000D03*
X63994000Y-99318000D03*
X63994000Y-96778000D03*
X63994000Y-94238000D03*
X63994000Y-91698000D03*
X63994000Y-89158000D03*
X63994000Y-86618000D03*
X63994000Y-84078000D03*
X63994000Y-81538000D03*
X63994000Y-78998000D03*
X63994000Y-76458000D03*
X63994000Y-73918000D03*
X63994000Y-71378000D03*
X63994000Y-68838000D03*
X63994000Y-66298000D03*
%TD*%
D20*
%TO.C,C2*%
X117388000Y-70612000D03*
D16*
X119888000Y-70612000D03*
%TD*%
D20*
%TO.C,C1*%
X117412887Y-79248000D03*
D16*
X119912887Y-79248000D03*
%TD*%
M02*
